<svg width="300" height="300" viewBox="0 0 300 300" fill="none" xmlns="http://www.w3.org/2000/svg">
<path fill-rule="evenodd" clip-rule="evenodd" d="M189.841 284.605C189.841 286.883 188.508 287.625 186.148 288.731C183.789 289.838 170.819 293.888 151.516 293.888C132.215 293.888 116.934 289.236 115.259 288.731C113.583 288.226 111.567 286.883 111.567 284.605V15.3963C111.567 13.1185 112.943 12.274 115.259 11.272C117.579 10.2683 132.989 6.11455 150.737 6.11455C168.487 6.11455 184.184 10.5388 186.148 11.272C188.117 12.0045 189.841 13.119 189.841 15.3967V284.605ZM157.105 273.227C157.105 274.334 156.838 275.366 156.303 276.323C155.766 277.28 155.036 278.033 154.111 278.583C153.186 279.134 152.188 279.411 151.119 279.411C150.052 279.411 149.058 279.134 148.133 278.583C147.208 278.033 146.478 277.28 145.94 276.323C145.406 275.366 145.138 274.334 145.138 273.227C145.138 272.126 145.406 271.094 145.94 270.134C146.478 269.177 147.208 268.422 148.133 267.871C149.058 267.32 150.052 267.044 151.119 267.044C152.188 267.044 153.186 267.32 154.111 267.871C155.036 268.422 155.766 269.177 156.303 270.134C156.838 271.094 157.105 272.126 157.105 273.227ZM155.95 273.227C155.95 271.849 155.48 270.676 154.536 269.7C153.592 268.726 152.453 268.239 151.122 268.239C149.79 268.239 148.651 268.726 147.708 269.7C146.764 270.676 146.293 271.849 146.293 273.227C146.293 274.605 146.764 275.778 147.708 276.755C148.651 277.728 149.79 278.215 151.122 278.215C152.453 278.215 153.592 277.728 154.536 276.755C155.48 275.778 155.95 274.605 155.95 273.227ZM148.411 269.915H151.272C152.082 269.915 152.667 270.084 153.031 270.422C153.394 270.759 153.576 271.213 153.576 271.783C153.576 272.226 153.437 272.61 153.159 272.934C152.884 273.258 152.445 273.493 151.849 273.639C152.092 273.736 152.274 273.841 152.389 273.949C152.549 274.099 152.721 274.325 152.897 274.622C152.908 274.644 153.25 275.283 153.929 276.539H152.052C151.44 275.277 151.031 274.525 150.822 274.279C150.614 274.032 150.403 273.908 150.194 273.908C150.149 273.908 150.082 273.916 149.999 273.932V276.539H148.411V269.915ZM149.999 272.721H150.689C151.146 272.721 151.469 272.643 151.659 272.488C151.846 272.334 151.94 272.134 151.94 271.891C151.94 271.647 151.849 271.448 151.67 271.293C151.491 271.138 151.183 271.061 150.75 271.061H149.999V272.721ZM151.056 248.732C159.346 248.732 160.709 241.364 160.709 221.99C160.709 202.714 159.346 195.246 151.056 195.246C142.768 195.246 141.4 202.714 141.4 221.99C141.4 241.364 142.768 248.732 151.056 248.732ZM151.056 184.552C172.118 184.552 174.753 200.092 174.753 221.99C174.753 243.887 172.118 259.426 151.056 259.426C129.993 259.426 127.358 243.887 127.358 221.99C127.359 200.092 129.993 184.552 151.056 184.552V184.552ZM170.023 106.059V117.966H145.159V134.92H168.558V146.827H145.159V166.202H171V178.109H131.114V106.059H170.023ZM131.599 98.3965V26.3455H145.645V86.488H170.509V98.3965H131.599Z" fill="#3A3A3A"/>
<path fill-rule="evenodd" clip-rule="evenodd" d="M65.771 157.305C59.928 160.956 53.2385 163.526 47.0785 167.264C42.6767 169.935 38.5153 172.728 34.6644 176.355C34.5247 176.491 31.0703 179.968 30.3442 177.366C29.9616 176.002 32.0855 174.23 33.1318 173.326C39.143 168.143 46.3643 163.722 54.1937 160.48C57.773 158.999 61.6722 157.283 65.771 157.305Z" fill="#3A3A3A"/>
<path fill-rule="evenodd" clip-rule="evenodd" d="M66.0475 162.069C65.0708 163.357 63.4858 163.968 62.1435 164.666C53.7294 169.044 45.0363 173.419 38.573 180.108C37.5749 181.141 36.1579 182.749 34.3876 181.839C33.7333 180.108 35.3521 178.833 36.3408 177.943C41.9359 172.89 48.1273 168.837 55.5887 165.385C58.9565 163.829 62.177 162.419 66.0475 162.069V162.069Z" fill="#3A3A3A"/>
<path fill-rule="evenodd" clip-rule="evenodd" d="M64.5153 168.129C65.718 168.233 64.5467 168.848 63.8178 169.285C59.3101 171.979 54.7253 173.945 50.4268 176.646C46.8621 178.884 43.5041 181.42 40.3865 184.584C39.9271 185.044 37.5843 187.332 36.7594 185.736C35.867 184.016 40.8484 180.525 41.9188 179.678C46.2557 176.24 50.5567 173.485 55.868 171.018C58.3693 169.853 61.3426 168.33 64.2364 168.129C64.3254 168.124 64.4238 168.121 64.5153 168.129V168.129Z" fill="#3A3A3A"/>
<path fill-rule="evenodd" clip-rule="evenodd" d="M27.7608 148.104C25.7716 149.707 18.9763 151.193 15.2911 150.557C15.1564 149.908 15.5749 149.24 15.849 148.68C20.5661 138.965 30.1057 128.898 36.2685 120.537C36.2665 120.487 36.2734 120.439 36.2685 120.394C36.3791 121.606 34.4406 124.869 33.7574 126.599C31.1716 133.169 28.54 140.384 27.7608 148.104Z" fill="#3A3A3A"/>
<path fill-rule="evenodd" clip-rule="evenodd" d="M78.7214 257.175C78.7721 257.172 78.8454 257.183 78.9033 257.183C78.896 257.179 78.8876 257.175 78.8803 257.172C78.8251 257.175 78.7745 257.172 78.7214 257.175Z" fill="#3A3A3A"/>
<path fill-rule="evenodd" clip-rule="evenodd" d="M93.0889 253.352C93.1395 253.348 93.2128 253.36 93.2707 253.36C93.2634 253.356 93.255 253.352 93.2477 253.348C93.1925 253.352 93.1419 253.348 93.0889 253.352Z" fill="#3A3A3A"/>
<path fill-rule="evenodd" clip-rule="evenodd" d="M101.301 249.529C101.35 249.525 101.424 249.536 101.48 249.536C101.472 249.532 101.465 249.529 101.458 249.525C101.405 249.529 101.351 249.525 101.301 249.529V249.529Z" fill="#3A3A3A"/>
<path fill-rule="evenodd" clip-rule="evenodd" d="M273.872 126.038C275.414 128.061 277.725 130.029 277.496 133.399C276.833 134.173 275.51 134.019 274.704 133.835C271.277 133.05 268.514 129.735 266.619 127.338C268.436 127.793 273.432 129.163 273.872 126.038Z" fill="#3A3A3A"/>
<path fill-rule="evenodd" clip-rule="evenodd" d="M220.869 167.03C222.514 165.953 224.617 166.498 226.307 166.74C238.396 168.495 249.498 173.256 260.062 176.268C259.966 174.839 258.041 174.185 256.854 173.378C250.737 169.217 243.867 165.395 236.35 162.41C233.283 161.191 230.053 160.624 226.868 159.379C227.951 157.67 230.439 158.421 232.027 158.658C240.802 159.976 248.286 164.029 254.624 168.039C255.937 168.87 257.178 169.754 258.386 170.639C259.583 171.511 260.658 172.667 262.013 173.091C262.212 171.455 260.433 170.6 259.504 169.772C253.286 164.214 247.015 158.214 238.863 154.471C237.629 153.907 236.179 153.465 235.375 152.308C235.443 151.796 236.152 151.76 237.326 151.875C240.87 152.223 244.653 154.742 247.511 156.492C254.972 161.071 261.265 166.977 267.454 173.378C268.431 174.389 270.853 176.428 270.939 177.276C271.116 178.946 267.588 181.667 265.92 181.751C264.3 181.835 261.991 180.576 260.199 179.875C249.473 175.669 238.899 171.075 226.586 168.763C224.713 168.41 222.394 168.533 220.869 167.03V167.03Z" fill="#3A3A3A"/>
<path fill-rule="evenodd" clip-rule="evenodd" d="M234.957 102.37C232.049 103.815 228.525 104.823 224.635 104.533C217.934 104.037 214.121 99.1066 211.942 94.1433C213.013 94.4767 213.722 95.8149 214.732 96.4507C216.599 97.628 219.719 98.3288 222.822 98.3288C234.989 98.3288 241.935 90.4419 253.645 91.2558C256.534 91.4549 259.37 92.6997 260.339 95.2957C261.266 97.7671 261.21 100.635 261.736 103.092C263.411 110.874 266.78 115.861 270.802 121.419C267.446 122.612 265.821 119.923 263.692 118.534C261.397 117.041 258.975 116.494 256.158 115.647C254.891 112.676 253.404 109.934 251.136 107.998C248.239 109.879 244.172 112.451 239.143 113.195C237.543 113.431 235.044 113.571 234.817 112.183C234.452 109.976 238.941 108.715 240.117 107.853C246.192 108.505 248.695 103.102 249.882 97.7501C249.457 97.1775 248.375 97.2895 247.787 96.8863C246.104 100.432 244.584 104.152 241.235 105.977C239.309 103.645 242.649 99.0867 240.536 96.4507C239.352 96.6212 238.421 97.0558 237.468 97.464C237.369 99.9429 237.006 103.242 237.881 105.113C236.965 104.713 235.991 103.128 234.957 102.37V102.37Z" fill="#3A3A3A"/>
<path fill-rule="evenodd" clip-rule="evenodd" d="M272.616 136.575C274.598 137.188 279.043 141.421 281.542 138.886C282.692 139.777 284.126 142.588 282.798 144.226C277.47 143.676 275.598 139.551 272.616 136.575Z" fill="#3A3A3A"/>
<path fill-rule="evenodd" clip-rule="evenodd" d="M278.473 146.102C280.679 146.912 282.94 149.639 286.423 149.132C285.029 153.727 280.047 147.47 278.473 146.102Z" fill="#3A3A3A"/>
<path fill-rule="evenodd" clip-rule="evenodd" d="M237.05 60.2241C237.459 61.5459 237.993 62.8739 238.722 63.9778C237.993 62.8739 237.569 61.5047 237.05 60.2241Z" fill="#3A3A3A"/>
<path fill-rule="evenodd" clip-rule="evenodd" d="M232.496 174.559C232.33 174.521 232.162 174.484 231.994 174.447C232.163 174.484 232.332 174.521 232.496 174.559Z" fill="#3A3A3A"/>
<path fill-rule="evenodd" clip-rule="evenodd" d="M234.431 175.056C234.25 175.004 234.07 174.952 233.879 174.901C234.07 174.952 234.25 175.004 234.431 175.056Z" fill="#3A3A3A"/>
<path fill-rule="evenodd" clip-rule="evenodd" d="M233.48 174.798C233.311 174.754 233.139 174.711 232.963 174.669C233.139 174.711 233.311 174.754 233.48 174.798Z" fill="#3A3A3A"/>
<path fill-rule="evenodd" clip-rule="evenodd" d="M235.512 175.399C235.267 175.314 235.005 175.229 234.734 175.146C235.005 175.228 235.267 175.314 235.512 175.399Z" fill="#3A3A3A"/>
<path fill-rule="evenodd" clip-rule="evenodd" d="M231.466 174.336C231.312 174.305 231.154 174.274 230.997 174.245C231.154 174.274 231.312 174.305 231.466 174.336Z" fill="#3A3A3A"/>
<path fill-rule="evenodd" clip-rule="evenodd" d="M227.32 173.648C227.267 173.642 227.216 173.634 227.166 173.628C227.216 173.634 227.267 173.642 227.32 173.648Z" fill="#3A3A3A"/>
<path fill-rule="evenodd" clip-rule="evenodd" d="M225.028 173.383C224.993 173.379 224.96 173.377 224.924 173.373C224.96 173.377 224.993 173.379 225.028 173.383Z" fill="#3A3A3A"/>
<path fill-rule="evenodd" clip-rule="evenodd" d="M230.384 174.126C230.305 174.112 230.226 174.099 230.149 174.085C230.226 174.099 230.305 174.112 230.384 174.126Z" fill="#3A3A3A"/>
<path fill-rule="evenodd" clip-rule="evenodd" d="M226.209 173.511C226.148 173.504 226.088 173.497 226.026 173.49C226.086 173.497 226.148 173.504 226.209 173.511Z" fill="#3A3A3A"/>
<path fill-rule="evenodd" clip-rule="evenodd" d="M210.968 170.493C210.987 170.502 211.001 170.522 211.021 170.532L211.021 170.532C211.001 170.521 210.987 170.502 210.968 170.493V170.493Z" fill="#3A3A3A"/>
<path fill-rule="evenodd" clip-rule="evenodd" d="M211.021 170.532L211.025 170.533C211.021 170.533 211.021 170.532 211.021 170.532Z" fill="#3A3A3A"/>
<path fill-rule="evenodd" clip-rule="evenodd" d="M222.797 257.183C222.853 257.183 222.925 257.172 222.976 257.175C222.925 257.17 222.872 257.175 222.82 257.172C222.812 257.175 222.805 257.179 222.797 257.183V257.183Z" fill="#3A3A3A"/>
<path fill-rule="evenodd" clip-rule="evenodd" d="M208.452 253.348C208.445 253.352 208.437 253.356 208.43 253.36C208.486 253.36 208.558 253.348 208.609 253.352C208.558 253.347 208.505 253.352 208.452 253.348H208.452Z" fill="#3A3A3A"/>
<path fill-rule="evenodd" clip-rule="evenodd" d="M200.24 249.525C200.233 249.529 200.225 249.533 200.218 249.536C200.274 249.536 200.349 249.525 200.399 249.529C200.346 249.524 200.296 249.529 200.24 249.525H200.24Z" fill="#3A3A3A"/>
<path fill-rule="evenodd" clip-rule="evenodd" d="M70.0933 175.314C70.2594 175.277 70.4277 175.24 70.5984 175.203C70.4277 175.24 70.2594 175.277 70.0933 175.314Z" fill="#3A3A3A"/>
<path fill-rule="evenodd" clip-rule="evenodd" d="M68.1617 175.815C68.3398 175.762 68.5227 175.71 68.7126 175.659C68.5227 175.71 68.3398 175.762 68.1617 175.815Z" fill="#3A3A3A"/>
<path fill-rule="evenodd" clip-rule="evenodd" d="M69.1096 175.555C69.2803 175.511 69.4513 175.468 69.629 175.425C69.4513 175.468 69.2803 175.512 69.1096 175.555Z" fill="#3A3A3A"/>
<path fill-rule="evenodd" clip-rule="evenodd" d="M67.0795 176.159C67.3245 176.072 67.5871 175.988 67.8586 175.904C67.5871 175.988 67.3245 176.072 67.0795 176.159Z" fill="#3A3A3A"/>
<path fill-rule="evenodd" clip-rule="evenodd" d="M71.1252 175.091C71.2792 175.059 71.4356 175.029 71.5945 174.998C71.4356 175.028 71.2792 175.059 71.1252 175.091Z" fill="#3A3A3A"/>
<path fill-rule="evenodd" clip-rule="evenodd" d="M75.2698 174.4C75.3229 174.394 75.3732 174.386 75.4262 174.38C75.3732 174.386 75.3229 174.394 75.2698 174.4Z" fill="#3A3A3A"/>
<path fill-rule="evenodd" clip-rule="evenodd" d="M77.5621 174.134C77.5984 174.13 77.6319 174.128 77.6658 174.124C77.6319 174.127 77.5984 174.13 77.5621 174.134Z" fill="#3A3A3A"/>
<path fill-rule="evenodd" clip-rule="evenodd" d="M72.2078 174.88C72.2846 174.866 72.3639 174.853 72.4435 174.837C72.3639 174.853 72.2846 174.866 72.2078 174.88Z" fill="#3A3A3A"/>
<path fill-rule="evenodd" clip-rule="evenodd" d="M76.381 174.261C76.4435 174.254 76.5036 174.247 76.564 174.241C76.5036 174.247 76.4435 174.254 76.381 174.261Z" fill="#3A3A3A"/>
<path fill-rule="evenodd" clip-rule="evenodd" d="M91.624 171.229C91.6048 171.238 91.5881 171.259 91.5688 171.269C91.5881 171.257 91.6048 171.238 91.624 171.229Z" fill="#3A3A3A"/>
<path fill-rule="evenodd" clip-rule="evenodd" d="M89.5025 173.783C89.5241 173.768 89.5409 173.745 89.5625 173.728C89.5409 173.745 89.5241 173.768 89.5025 173.783Z" fill="#3A3A3A"/>
<path fill-rule="evenodd" clip-rule="evenodd" d="M201.926 102.751C205.207 108.106 209.328 112.603 215.733 114.729C207.849 118.442 200.475 112.91 201.926 102.751ZM295.489 163.855C294.635 163.979 293.069 161.961 292.004 161.257C291.109 161.536 290.573 162.948 289.908 162.989C286.086 160.083 280.855 156.285 274.43 157.071C273.008 157.245 270.699 159.128 269.268 160.101C267.772 161.117 266.35 162.199 264.945 163.133C271.966 163.82 276.496 166.781 278.613 173.091C279.169 174.747 280.327 177.923 279.868 179.728C279.649 180.588 277.72 181.765 276.799 182.615C275.54 183.783 274.67 184.739 273.872 185.506C271.565 187.705 270.049 190.068 268.151 191.565C264.322 194.592 258.956 191.424 255.598 189.256C250.313 185.846 246.921 181.395 240.254 179.728C229.364 177.009 215.771 177.842 206.989 182.712C203.244 187.231 200.69 193.896 199.304 201.449C198.888 203.724 197.994 207.811 198.251 210.145C198.308 210.674 198.522 211.221 198.811 211.767C200.502 214.698 204.175 216.941 207.203 218.847C213.712 222.942 220.972 226.41 228.958 228.947C233.815 230.49 239.554 231.84 245.276 230.966C245.849 232.626 248.09 235.568 246.669 237.895C246.179 238.71 242.924 239.969 242.073 240.639C239.456 242.679 237.555 245.78 235.653 249.007C234.336 251.244 232.157 254.9 229.237 252.039C228.433 251.248 227.955 249.627 227.842 248.576C227.216 242.605 230.228 236.286 231.61 231.835C229.684 232.594 226.983 233.401 224.08 234.142C222.078 234.653 217.296 236.009 216.127 234.142C214.413 231.411 218.043 228.502 218.779 226.782C215.969 227.333 211.701 228.561 208.314 228.513C207.35 228.499 205.813 228.31 205.388 227.651C203.91 225.355 206.835 222.438 207.34 220.719C205.101 221.511 202.217 223.063 199.114 223.03C193.5 222.971 196.667 217.564 198.953 215.085C198.049 215.251 197.118 215.382 196.192 215.502C195.111 215.838 193.975 216.109 192.85 216.103V251.472L193.522 251.304C195.369 250.842 199.032 249.45 200.495 249.451C200.502 249.448 200.273 249.536 200.218 249.536C197.869 250.688 195.401 252.005 192.85 253.382V257.19C195.918 256.557 198.881 255.843 201.734 255.127C203.581 254.665 206.968 253.358 208.43 253.36L208.452 253.349C208.506 253.353 208.558 253.349 208.609 253.353C208.558 253.349 208.486 253.36 208.43 253.36C203.632 255.713 198.34 258.753 192.85 261.602V263.024C201.221 262.531 209.002 260.732 216.102 258.951C217.949 258.488 221.336 257.182 222.798 257.183L222.82 257.172C222.873 257.176 222.926 257.172 222.976 257.176C222.926 257.172 222.853 257.183 222.798 257.183C213.888 261.553 203.278 268.29 192.85 271.774V276.935C204.334 273.966 213.9 270.058 220.479 266.059C227.161 261.996 235.484 257.971 237.36 256.03C239.747 253.563 242.084 249.992 244.035 247.429C246.54 244.142 251.838 241.743 251.273 235.731C251.015 232.987 249.534 230.619 248.483 228.226C250.816 224.26 249.816 216.575 248.345 212.35C247.881 211.003 247.336 208.377 245.975 208.45C244.637 208.527 243.761 213.62 243.323 214.949C242.436 217.654 241.715 219.48 240.678 221.587C232.456 215.405 227.527 205.09 228.123 190.265C231.161 188.854 235.66 187.956 240.398 187.956C244.947 187.956 249.861 188.159 252.251 190.699C250.864 194.103 249.14 197.094 246.532 199.504C245.74 200.238 244.009 200.993 244.438 202.1C244.937 203.364 247.603 202.625 249.046 202.392C254.235 201.542 258.501 200.144 261.736 197.771C269.867 199.524 272.706 193.6 276.52 189.978C280.032 186.643 283.77 183.546 286.842 180.883C290.296 177.896 294.106 174.865 297.024 171.646C300.53 167.777 300.689 162.682 298.794 156.782C297.312 152.156 295.6 147.824 293.259 143.503C287.477 132.833 281.405 122.721 274.985 113.051C273.74 111.17 271.921 109.116 270.94 107.276C269.975 105.468 269.624 102.89 269.405 100.493C269.17 97.8945 269.47 94.9725 268.989 92.4125C268.416 89.3632 265.973 87.2639 264.249 84.9064C261.231 80.7845 258.285 76.2232 255.534 71.8413C255.06 70.1373 255.651 64.2806 255.625 62.7372C255.54 57.8549 253.414 53.5513 251.579 51.3606C250.004 49.4789 242.761 40.3188 235.153 37.2735C226.968 32.652 214.063 26.5119 192.85 22.6322V208.877L193.106 208.411C195.082 198.009 190.56 184.115 204.21 178.974C207.168 177.778 211.365 177.248 213.614 176.894C220.137 175.147 227.686 174.399 235.512 175.399C235.267 175.314 235.005 175.229 234.734 175.146C234.635 175.115 234.532 175.087 234.431 175.056C234.25 175.004 234.07 174.952 233.879 174.901C233.75 174.866 233.615 174.832 233.48 174.798C233.312 174.754 233.139 174.711 232.963 174.669C232.809 174.631 232.655 174.595 232.496 174.559C232.332 174.521 232.162 174.484 231.994 174.447C231.818 174.41 231.645 174.372 231.467 174.336C231.313 174.305 231.154 174.274 230.997 174.245C230.793 174.204 230.591 174.165 230.384 174.126C230.305 174.112 230.227 174.099 230.149 174.085C229.243 173.925 228.294 173.777 227.32 173.648C227.267 173.642 227.216 173.634 227.166 173.628C226.848 173.587 226.529 173.547 226.209 173.511C226.149 173.504 226.086 173.496 226.026 173.49C225.694 173.452 225.362 173.416 225.028 173.383C224.993 173.379 224.96 173.377 224.925 173.373C223.075 173.19 221.189 173.08 219.383 173.054C213.912 173.136 208.096 174.33 202.9 176.414C205.311 173.632 208.236 171.664 211.021 170.533C211.001 170.522 210.987 170.502 210.969 170.493C207.805 170.345 203.299 171.898 195.721 176.712C195.898 176.092 195.383 173.349 203.902 169.645C206.078 168.249 211.05 167.595 213.756 166.886C213.756 166.882 213.759 166.879 213.759 166.876C207.78 165.77 200.568 167.27 196.693 169.68C198.339 165.372 202.45 162.512 207.058 161.029C203.936 160.132 199.661 159.589 196.222 160.146C195.856 159.906 196.83 159.306 197.241 159.034C200.212 157.055 204.896 155.121 209.697 155.011C209.284 154.784 208.87 154.557 208.456 154.329C204.158 151.759 201.703 148.742 201.694 147.193C204.261 149.21 208.983 152.927 221.151 155.628C220.613 150.159 225.178 148.732 229.794 148.124C222.922 146.53 215.595 145.402 208.597 143.937C206.942 143.568 201.708 142.176 201.743 141.228C215.237 142.908 237.915 142.49 245.835 135.853C234.743 138.59 219.759 139.97 214.217 137.847C221.69 135.502 237.318 134.107 244.585 126.039C234.743 129.456 230.124 129.245 221.811 129.882C227.969 127.757 236.885 122.743 240.537 117.669C233.575 120.279 226.539 122.814 217.524 123.298C222.019 121.067 226.738 119.073 230.077 115.647C226.275 116.043 222.392 116.355 218.501 116.659C219.391 114.978 220.474 113.502 221.428 111.896C213.029 108.273 204.595 104.499 200.9 90.9585C203.656 93.8878 206.636 95.4749 208.421 94.5852C208.434 94.5812 208.446 94.5801 208.456 94.574C206.793 86.4269 207.118 74.238 214.039 71.9156C210.523 68.4968 205.057 67.8595 200.978 67.8595C205.134 65.1511 214.993 67.5832 218.917 69.0282C217.194 65.8094 212.57 61.663 209.137 60.213C214.755 59.8855 222.212 62.8327 225.473 65.4199C224.211 63.1936 222.847 60.5303 221.151 58.4929C220.639 57.878 217.296 53.3631 215.295 51.1328C219.379 52.9631 227.302 57.1862 230.354 63.9779C231.194 63.6915 232.424 63.8073 233.284 63.5447C229.766 49.5395 218.692 42.6013 216.988 39.0256C219.85 41.5146 232.844 46.6723 237.052 60.2241C237.57 61.5047 237.994 62.8739 238.723 63.9779C240.197 66.2003 243.308 66.6409 246.814 66.5752C247.482 68.1766 248.203 69.8695 249.024 71.5224C249.115 71.7087 249.213 71.8958 249.308 72.0812C249.459 72.376 249.612 72.672 249.772 72.9634C249.807 73.0281 249.843 73.0927 249.88 73.1576C250.566 74.3933 251.32 75.5806 252.174 76.6573C252.174 76.6621 252.177 76.6673 252.179 76.6724C253.104 77.842 254.136 78.885 255.322 79.7091C257.172 85.2023 259.488 88.3957 263.619 91.5348C263.785 97.3891 264.187 105.663 266.479 109.73C267.693 111.882 269.416 113.857 270.804 115.936C277.722 126.293 284.066 137.095 290.191 148.555C292.592 153.049 295.7 157.979 295.491 163.855H295.489ZM249.322 200.084C251.214 197.658 252.88 195.005 254.202 191.997C256.327 193.314 258.369 194.712 261.18 195.317C258.136 197.846 253.912 199.15 249.322 200.084ZM229.516 222.454C225.922 221.43 223.089 219.553 220.589 216.97C218.146 214.439 214.853 210.39 215.43 204.99C215.541 203.946 216.334 202.475 216.127 201.09C215.849 199.237 213.429 198.008 212.082 196.616C210.626 195.111 208.165 191.86 210.133 189.256C212.892 185.587 220.544 189.073 221.987 191.855C224.031 195.795 222.805 203.098 223.519 209.608C224.203 215.818 226.79 219.575 229.516 222.454V222.454ZM246.253 213.217C247.946 216.727 248.17 223.596 246.532 227.359C244.329 227.969 241.512 228.52 239.143 227.792C242.389 223.841 244.73 218.952 246.253 213.217ZM108.558 261.45C103.171 258.645 97.9825 255.671 93.2706 253.36C93.2129 253.36 93.1394 253.349 93.0888 253.352C93.1419 253.347 93.1924 253.352 93.2477 253.348C93.2551 253.352 93.2634 253.356 93.2706 253.359C94.7331 253.359 98.1173 254.664 99.9658 255.127C102.727 255.819 105.593 256.512 108.558 257.13V253.225C106.109 251.904 103.74 250.644 101.48 249.536C101.424 249.536 101.35 249.525 101.301 249.528C101.351 249.523 101.404 249.528 101.458 249.525C101.464 249.528 101.472 249.532 101.48 249.536C102.94 249.533 106.33 250.841 108.176 251.304L108.558 251.4V216.357C105.951 217.225 103.205 217.95 100.341 218.555C100.866 219.938 102.778 221.134 104.108 222.162C99.4778 224.2 95.1169 226.524 89.043 227.071C89.5242 228.113 91.1071 229.264 92.3913 229.957C89.8104 230.643 86.0579 231.634 83.1883 230.68C82.8734 232.329 82.8011 234.225 82.4862 235.874C79.2989 235.955 76.227 235.907 74.678 234.288C74.3246 235.279 74.1828 236.553 74.3992 237.751C71.6448 237.23 69.1889 236.407 67.5655 234.72C67.6855 238.011 68.1017 240.995 68.6815 243.814C68.2482 243.944 67.9792 243.262 67.7024 242.946C65.2561 240.146 62.3045 236.793 60.3083 233.421C60.8135 239.397 61.7824 244.889 63.7986 249.297C63.7117 249.746 63.3319 248.955 63.2404 248.865C59.1223 244.803 57.1041 237.537 57.2414 229.092C59.5193 230.52 63.63 230.539 66.4469 229.525L68.9581 228.369C69.6073 228.254 70.1895 228.517 70.7716 228.513C74.2237 228.494 77.1173 226.669 78.4474 224.04C86.5222 225.313 91.9536 221.647 94.9003 216.679C97.558 216.133 99.5596 214.956 101.458 213.216C102.946 211.851 105.102 209.435 105.364 207.152C105.636 204.788 104.402 200.693 104.248 198.349C103.582 188.187 99.562 185.964 95.3692 181.39C73.8169 175.655 56.8827 181.604 44.1341 189.833C43.4006 190.306 42.4216 191.062 42.0418 191.133C40.151 191.475 37.8272 190.101 36.045 190.41C33.2666 184.43 29.4062 179.575 25.1676 175.109C25.9831 174.948 26.4977 174.47 27.395 174.389C29.4062 168.003 33.8007 164.086 41.202 163.277C40.4515 158.082 41.3177 152.556 43.0157 148.986C41.171 150.059 39.2753 152.332 37.4353 153.896C26.1682 154.695 13.7084 158.361 7.11273 163.999C4.0458 160.695 4.79884 153.062 7.94979 150.431C15.4544 132.86 30.6374 117.516 41.902 103.091C42.626 102.162 43.8916 100.624 43.9901 100.06C44.1681 99.0998 43.6703 97.6088 43.5764 96.4493C42.4795 83.284 48.4808 74.3806 56.8252 69.3178C56.6329 66.1939 56.474 63.043 56.1277 60.0807C57.7427 57.0749 58.8 55.4746 59.6791 54.5224C64.7209 46.7724 75.9097 38.1392 84.3357 36.2115C77.2542 41.6277 69.8143 48.902 69.0736 52.9756C74.1032 49.5403 80.0973 44.7765 85.5168 46.1941C81.1512 47.889 75.6005 53.279 71.7372 59.1934C72.1439 60.2735 72.4686 61.4397 72.7248 62.6756C76.2895 58.713 90.3396 48.7427 90.1087 49.6987C86.8615 52.6442 79.2458 59.3701 77.8843 64.2662C78.5099 65.0128 79.7317 65.1447 80.5353 65.7098C83.893 63.3139 90.4165 59.8938 94.4194 59.3364C88.0303 63.7969 88.2756 65.2531 85.9736 68.163C86.4502 69.0167 87.1019 69.6901 87.9294 70.1812C93.4356 67.049 98.0321 70.4775 98.1115 76.5337C98.1861 82.5373 92.8796 85.5917 86.948 85.771C87.1718 87.9189 88.0233 89.416 88.9781 90.8075C89.0273 90.8024 89.0756 90.8099 89.1237 90.8048C89.7637 91.7745 90.8015 93.4011 91.2221 94.0756C88.6943 95.4174 86.2624 96.6668 82.717 96.674C76.6191 96.6863 72.5637 93.1594 67.2334 90.902C62.1076 88.7301 55.9257 88.505 49.7992 90.7576C48.1563 92.933 47.1336 97.737 48.4037 101.15C47.6797 102.497 46.386 102.972 45.4766 104.18C43.3476 106.999 43.0638 111.387 40.7333 114.138C39.9463 115.069 39.083 115.584 38.2218 116.591C47.6559 116.394 53.4023 112.38 58.0254 107.209C64.1907 112.783 72.47 106.229 75.325 101.726C80.4798 106.382 91.405 104.923 96.2447 100.861C95.8191 101.328 95.3598 101.779 94.869 102.214C96.3326 101.168 97.6387 100.073 98.6899 98.7997C94.3627 106.519 87.7597 109.491 81.1656 112.349C82.1204 113.963 83.2029 115.447 84.0928 117.135C80.2009 116.83 76.316 116.516 72.5158 116.118C75.8542 119.562 80.5737 121.564 85.0696 123.806C76.0515 123.32 69.0181 120.773 62.0543 118.15C65.7082 123.248 74.6225 128.287 80.7804 130.422C72.4675 129.782 67.8494 129.995 58.0088 126.561C65.2752 134.667 80.9034 136.07 88.377 138.425C82.835 140.56 67.8494 139.172 56.7553 136.42C64.6764 143.09 87.3545 143.51 100.851 141.823C100.883 142.775 95.6506 144.174 93.9958 144.545C86.9983 146.017 79.6717 147.149 72.7972 148.752C77.4155 149.363 81.9807 150.797 81.442 156.293C93.6111 153.578 98.3304 149.844 100.897 147.815C100.887 149.374 98.4337 152.405 94.1355 154.986C93.7241 155.217 93.3077 155.445 92.894 155.672C97.6978 155.781 102.379 157.726 105.352 159.714C105.763 159.987 106.737 160.591 106.369 160.831C102.932 160.271 98.6573 160.817 95.5353 161.719C100.144 163.209 104.255 166.083 105.9 170.411C102.022 167.989 94.8113 166.483 88.8316 167.596C88.8339 167.598 88.8339 167.602 88.8363 167.606C91.5423 168.316 96.5117 168.973 98.6888 170.376C107.209 174.097 106.692 176.854 106.869 177.479C99.2903 172.641 94.7872 171.08 91.6239 171.229C91.6048 171.238 91.5879 171.258 91.5688 171.268C94.3567 172.405 97.2816 174.383 99.6894 177.177C94.496 175.084 88.6776 173.885 83.2078 173.802C81.4036 173.827 79.5178 173.94 77.6656 174.123C77.6319 174.127 77.5985 174.13 77.5621 174.133C77.2277 174.167 76.896 174.201 76.5639 174.24C76.5036 174.247 76.4436 174.253 76.3809 174.261C76.0612 174.298 75.7411 174.337 75.4263 174.379C75.3731 174.385 75.323 174.393 75.2699 174.4C74.2958 174.528 73.3477 174.676 72.4435 174.837C72.3639 174.852 72.2846 174.866 72.2077 174.88C71.9983 174.918 71.7965 174.958 71.5945 174.997C71.4356 175.028 71.2792 175.058 71.1253 175.091C70.9473 175.127 70.7716 175.164 70.5985 175.203C70.4277 175.24 70.2594 175.277 70.0934 175.313C69.937 175.35 69.7808 175.387 69.6291 175.424C69.4514 175.468 69.2804 175.511 69.1096 175.554C68.9747 175.587 68.8401 175.623 68.7125 175.659C68.5226 175.71 68.3397 175.762 68.1617 175.814C68.0608 175.843 67.955 175.873 67.8588 175.903C67.5871 175.988 67.3246 176.072 67.0795 176.158C74.9063 175.154 82.4523 175.905 88.9756 177.66C91.225 178.018 95.4223 178.55 98.3834 179.75C103.735 181.776 106.28 185.161 107.531 189.15C107.88 189.39 108.223 189.636 108.558 189.89V22.6331C91.2507 26.5134 80.624 31.8931 73.1769 35.7203C67.659 38.3349 56.8827 46.7258 55.1513 49.8332C53.3109 53.1361 51.1893 56.2603 51.105 61.0915C51.0785 62.6371 51.6127 64.3274 51.3844 65.9975C51.2518 66.9784 49.5754 67.9355 48.7334 68.7405C41.7411 75.4188 37.4088 85.3428 38.5537 98.9062C28.8961 111.849 14.7378 124.97 6.97341 140.185C4.61838 144.8 1.19078 151.285 0 156.492V159.812C0.986279 168.674 9.321 171.628 15.2046 176.699C19.5485 180.447 27.0442 184.642 29.9064 189.834C30.7603 191.382 31.903 194.392 32.8338 195.031C34.7293 196.318 38.4888 195.459 40.6463 195.896C41.9236 196.156 42.3687 197.372 43.8552 198.349C45.0289 199.125 46.6143 199.83 47.7592 200.225C48.8538 200.607 56.4933 202.845 56.9645 200.805C57.2439 199.594 56.1877 199.619 55.2906 198.927C52.534 196.799 51.5527 192.73 49.994 189.977C53.5587 187.553 59.1582 185.224 63.9355 183.628C65.6363 183.06 67.7386 181.973 69.0977 182.04C71.0484 182.138 73.3958 184.659 74.3992 185.795C72.1621 191.403 71.3201 200.514 72.7248 207.73C72.3471 208.558 71.4549 209.08 70.7716 209.751C70.0356 210.474 69.3309 211.25 68.6815 212.059C67.3177 213.757 66.6462 215.872 65.1961 217.4C64.1424 215.838 63.5483 213.925 62.8218 211.629C62.3865 210.245 61.8788 205.764 60.5897 205.566C59.4351 205.388 58.7735 207.278 58.3598 208.307C56.8661 212.028 55.8533 216.594 56.2695 221.299C52.0504 220.51 51.3507 224.335 50.968 227.651C50.0925 235.163 50.4819 243.641 53.3374 248.286C55.2232 251.356 58.5016 254.003 61.9752 255.813C63.3173 256.511 72.0322 258.071 76.5856 261.019C86.8094 267.633 97.6079 272.438 108.558 275.781V271.675C98.2232 268.163 87.7271 261.512 78.9034 257.183C78.8454 257.183 78.7721 257.172 78.7214 257.175C78.7744 257.17 78.8252 257.175 78.8802 257.172C78.8876 257.175 78.896 257.179 78.9034 257.183C80.3656 257.183 83.7498 258.488 85.5984 258.951C92.6129 260.711 100.299 262.489 108.558 263.006V261.45ZM64.3058 101.439C64.597 99.0578 65.8453 96.7345 68.3496 98.1172C69.023 102.905 68.8812 109.431 63.748 108.798C59.2256 108.243 57.1283 102.824 55.9374 98.5518C56.3825 98.0509 57.2099 97.9442 58.0254 97.8309C59.3605 101.598 60.8276 105.227 63.8876 107.21C64.9074 105.889 64.0633 103.403 64.3058 101.439V101.439ZM60.0314 210.326C61.7924 216.158 64.0366 221.483 67.1444 225.916C65.3186 226.933 62.1027 227.753 59.6133 226.782C57.6068 222.232 58.2901 214.613 60.0314 210.326ZM79.4263 209.509C80.7326 203.098 80.1768 195.707 82.5703 191.986C84.2635 189.357 92.199 186.635 94.6117 190.557C96.3317 193.342 93.5846 196.338 91.9992 197.694C90.532 198.947 88.0087 199.935 87.5615 201.755C87.2296 203.11 87.8862 204.654 87.9004 205.703C87.9826 211.135 84.3332 214.844 81.6708 217.124C78.9452 219.451 75.9531 221.043 72.2821 221.711C75.258 219.111 78.1778 215.624 79.4263 209.509V209.509ZM52.0841 198.926C48.0745 198.309 44.7766 196.959 42.7368 194.309C44.6128 193.261 46.1091 191.831 48.1803 190.986C48.9954 194.036 50.8936 196.741 52.0841 198.926V198.926ZM86.8565 115.196C93.2643 113.059 97.3829 108.542 100.664 103.16C102.114 113.369 94.7439 118.928 86.8565 115.196Z" fill="#3A3A3A"/>
<path fill-rule="evenodd" clip-rule="evenodd" d="M208.42 94.5851C208.431 94.5801 208.444 94.5801 208.455 94.5739C208.445 94.5801 208.432 94.5812 208.42 94.5851Z" fill="#3A3A3A"/>
<path fill-rule="evenodd" clip-rule="evenodd" d="M111.888 7.78649C110.624 8.28573 109.709 8.74416 109.227 9.19285C108.76 9.65165 108.583 9.96448 108.557 10.8586H108.558V289.143C108.562 289.876 108.876 290.436 109.485 290.99C110.086 291.531 110.97 291.953 111.765 292.171C113.596 292.682 130.26 297.45 151.61 297.45H151.611C172.939 297.467 187.127 293.263 189.487 292.227C190.792 291.667 191.728 291.2 192.202 290.762C192.659 290.31 192.817 290.048 192.849 289.143V10.8586C192.831 10.0548 192.587 9.60938 192.039 9.09458C191.49 8.59571 190.598 8.15569 189.572 7.80778C187.571 7.1077 170.317 2.53637 150.738 2.54938C150.695 2.54938 150.654 2.54938 150.611 2.54938H150.612C131.093 2.55006 114.174 6.85191 111.887 7.78649H111.888ZM111.124 294.632C110.045 294.328 108.87 293.797 107.883 292.927C106.902 292.07 106.088 290.762 106.094 289.143V10.8586C106.068 9.39949 106.658 8.09969 107.604 7.27749C108.534 6.44118 109.678 5.94518 110.998 5.40944C113.875 4.2762 130.743 0.01879 150.739 0C170.73 0.0104653 187.972 4.57639 190.352 5.39101V5.39068C191.522 5.79672 192.687 6.31189 193.651 7.16553C194.613 8.00112 195.331 9.30922 195.313 10.8586V289.143C195.343 290.59 194.76 291.884 193.815 292.689C192.888 293.508 191.764 293.995 190.439 294.577H190.44C187.537 295.821 173.311 299.987 151.61 300H151.611C129.923 300 113.026 295.161 111.124 294.632L111.124 294.632Z" fill="#3A3A3A"/>
</svg>
